<?xml version="1.0" encoding="utf-8"?>
<!-- Generator: Adobe Illustrator 16.0.0, SVG Export Plug-In . SVG Version: 6.00 Build 0)  -->
<!DOCTYPE svg PUBLIC "-//W3C//DTD SVG 1.1//EN" "http://www.w3.org/Graphics/SVG/1.1/DTD/svg11.dtd">
<svg version="1.1" id="Layer_1" xmlns="http://www.w3.org/2000/svg" xmlns:xlink="http://www.w3.org/1999/xlink" x="0px" y="0px"
	 width="100px" height="90.489px" viewBox="0 0 100 90.489" enable-background="new 0 0 100 90.489" xml:space="preserve">
<path fill="#010101" d="M77.972,10.269c-4.476-2.973-8.877-5.344-13.082-7.043c-5.009-2.023-9.77-3.105-14.154-3.214
	C50.56,0.007,50.293,0,50.001,0H50c-0.292,0-0.561,0.006-0.735,0.011c-4.384,0.107-9.147,1.191-14.155,3.214
	c-4.204,1.699-8.606,4.071-13.082,7.043C14.984,14.951,7.78,21.152,2.759,26.856c-2.056,2.336-3.059,5.776-2.681,9.205
	c0.253,2.288,1.104,4.18,2.415,5.41c0.987,1.099,3.599,3.521,9.095,5.876c0.02,0.013,0.039,0.02,0.059,0.032l6.611,31.522
	l0.069,0.331l0.118,0.319c0.818,2.207,3.446,6.712,7.551,7.981c0.648,0.201,1.385,0.287,2.455,0.287
	c0.623,0,3.301-0.042,5.989-0.728c0.006,0.005,0.014,0.01,0.019,0.013c2.032,1.43,4.812,3.384,7.992,3.384
	c2.381,0,4.896-0.702,6.731-1.218c0.253-0.07,0.562-0.158,0.816-0.227c0.257,0.068,0.564,0.156,0.819,0.227
	c1.837,0.513,4.352,1.218,6.732,1.218c3.18,0,5.961-1.954,7.991-3.382c0.008-0.005,0.014-0.01,0.02-0.015
	c2.69,0.686,5.369,0.728,5.991,0.728c1.068,0,1.804-0.086,2.453-0.287c4.105-1.27,6.735-5.774,7.555-7.981l0.114-0.319l0.07-0.331
	l6.613-31.522c0.02-0.013,0.036-0.02,0.056-0.032c5.498-2.355,8.107-4.775,9.094-5.876c1.315-1.23,2.164-3.122,2.414-5.41
	c0.38-3.428-0.625-6.869-2.679-9.205C92.221,21.152,85.018,14.951,77.972,10.269z M67.406,62.94
	c-0.625-0.074-1.193,0.378-1.268,1.008l-2.098,18.076c-0.017,0.143-0.005,0.281,0.028,0.41c-0.356,0.219-0.768,0.511-1.227,0.833
	c-1.519,1.065-3.598,2.529-5.293,2.529c-1.735,0-3.893-0.605-5.469-1.043c-0.345-0.098-0.662-0.186-0.947-0.26
	c0.003-0.037,0.011-0.068,0.011-0.104V67.972c0-0.636-0.513-1.146-1.146-1.146c-0.63,0-1.143,0.511-1.143,1.146V84.39
	c0,0.036,0.007,0.067,0.009,0.104c-0.284,0.074-0.601,0.162-0.946,0.26c-1.574,0.438-3.732,1.043-5.468,1.043
	c-1.696,0-3.775-1.464-5.295-2.529c-0.458-0.322-0.871-0.614-1.226-0.833c0.034-0.129,0.046-0.266,0.03-0.41l-2.098-18.076
	c-0.072-0.627-0.641-1.082-1.267-1.008c-0.629,0.074-1.081,0.644-1.006,1.271l2.097,18.077c0.006,0.048,0.018,0.091,0.03,0.137
	c-1.865,0.542-4.089,0.699-5.265,0.699c-0.515,0-0.913-0.028-1.07-0.074c-2.034-0.63-3.911-3.434-4.533-5.117l-5.964-28.43
	c6.525,2.195,16.559,4.153,31.689,4.271c0.463,0.005,0.935,0.005,1.425,0.005c0.491,0,0.965,0,1.427-0.005
	c15.13-0.117,25.161-2.075,31.689-4.271l-5.959,28.416c-0.628,1.697-2.505,4.501-4.538,5.131c-0.158,0.046-0.556,0.075-1.069,0.075
	c-1.177,0-3.401-0.158-5.265-0.7c0.01-0.044,0.023-0.088,0.028-0.135l2.098-18.079C68.483,63.584,68.033,63.015,67.406,62.94z
	 M44.924,25.364c3.323-4.674,13.254-5.352,14.436,1.449c0.472,2.712-1.286,5.604-3.734,7.219c-1.332,0.88-2.869,1.378-4.361,1.265
	c-1.798-0.141-3.345-0.897-4.425-2.343C45.398,31.026,43.215,27.77,44.924,25.364z M69.88,28.963
	c0.536-5.95,8.897-5.417,12.386-3.304c3.64,2.207,6.634,6.101,3.526,10.029C82.165,40.27,69.422,34.08,69.88,28.963z M33.551,38.182
	c-0.03,0.076-0.063,0.152-0.099,0.227c-0.871,1.855-3.402,3.376-6.274,3.612c-3.656,0.3-5.105-1.5-5.073-3.612
	c0.001-0.076,0.005-0.151,0.009-0.227c0.218-3.374,4.082-7.365,8.729-4.881C33.551,34.747,34.178,36.572,33.551,38.182z
	 M28.712,19.758c4.085,5.424-8.279,8.535-9.355,4.62c-0.117-0.427,0.04-1.079,0.345-1.802c0.724-1.724,2.298-3.869,3.055-4.464
	c1.163-0.914,2.521-0.827,3.725-0.234C27.349,18.304,28.135,18.989,28.712,19.758z M49.817,9.616
	c1.744,2.035-0.678,4.388-3.437,5.798c-1.389,0.712-4.28,1.014-6.765,0.638c-2.248-0.342-4.161-1.243-4.328-2.898
	c-0.038-0.387,0.018-0.817,0.191-1.292c1.14-3.146,9.686-4.852,12.35-3.623C48.759,8.67,49.405,9.135,49.817,9.616z"/>
</svg>
