<svg xmlns="http://www.w3.org/2000/svg" xmlns:xlink="http://www.w3.org/1999/xlink" version="1.1" id="Layer_2" x="0px" y="0px" width="100px" height="87.7192982456px" viewBox="0 0 114.667 100" enable-background="new 0 0 114.667 100" xml:space="preserve">
<path d="M98.059,8.628c-5.978,0-11.174,3.384-13.792,8.334c-3.992-0.659-10.186-0.758-16.222,2.871  c-8.489,5.103-13.65,15.609-15.34,31.228c-0.945,8.737-3.765,14.567-8.378,17.327c-4.063,2.431-9.026,2.268-12.673,1.63  c-1.552-6.978-7.781-12.214-15.219-12.214c-8.601,0-15.599,6.998-15.599,15.6s6.998,15.599,15.599,15.599  c5.887,0,11.02-3.279,13.675-8.105c1.812,0.297,3.844,0.506,6.004,0.506c4.382,0,9.264-0.851,13.778-3.526  C57.675,73.263,62.3,64.64,63.641,52.244c1.273-11.768,4.722-19.695,9.972-22.923c3.503-2.154,7.23-1.871,9.295-1.456  c1.646,6.849,7.806,11.96,15.151,11.96c8.602,0,15.6-6.998,15.6-15.599C113.658,15.625,106.66,8.628,98.059,8.628z M16.436,81.002  c-4.19,0-7.599-3.409-7.599-7.599c0-4.19,3.409-7.6,7.599-7.6c4.19,0,7.6,3.409,7.6,7.6c0,0.764-0.116,1.501-0.327,2.196  l-0.551,1.337C21.883,79.351,19.35,81.002,16.436,81.002z M98.059,31.826c-4.189,0-7.598-3.409-7.598-7.599s3.408-7.599,7.598-7.599  c4.19,0,7.6,3.409,7.6,7.599S102.249,31.826,98.059,31.826z"/>
</svg>