<?xml version="1.0" encoding="utf-8"?>
<!-- Generator: Adobe Illustrator 16.0.0, SVG Export Plug-In . SVG Version: 6.00 Build 0)  -->
<!DOCTYPE svg PUBLIC "-//W3C//DTD SVG 1.1//EN" "http://www.w3.org/Graphics/SVG/1.1/DTD/svg11.dtd">
<svg version="1.1" id="Layer_1" xmlns="http://www.w3.org/2000/svg" xmlns:xlink="http://www.w3.org/1999/xlink" x="0px" y="0px"
	 width="99.994px" height="100px" viewBox="0.003 0 99.994 100" enable-background="new 0.003 0 99.994 100" xml:space="preserve">
<g id="Your_Icon">
	<path d="M33.326,0l-4.162,12.505c0.122,0.043,0.231,0.098,0.354,0.141L29,12.994c0,0,5.272,2.637,13.183,7.916
		c6.115,4.071,10.675,5.054,16.076,7.69c3.387,2.776,6.572,5.785,9.545,9.002c2.203,1.825,4.986,4.09,8.653,7.025
		c11.536,9.221,8.941,16.447,9.876,23.394c0.36,0.963,0.842,1.843,1.165,2.808l12.499-4.163C89.531,35.264,64.733,10.467,33.326,0z"
		/>
	<path d="M58.002,57.814c-5.822,0-10.547,4.712-10.547,10.546c0,5.822,4.725,10.547,10.547,10.547
		c5.828,0,10.546-4.725,10.546-10.547C68.548,62.526,63.83,57.814,58.002,57.814z"/>
	<path d="M15.822,84.182c5.817,0,10.547-4.726,10.547-10.547c0-5.823-4.729-10.547-10.547-10.547c-1.336,0-2.6,0.317-3.771,0.769
		L6.984,79.041C8.84,82.068,12.021,84.182,15.822,84.182z"/>
	<path d="M34.272,36.723c-2.911,0-5.272,2.355-5.272,5.278c0,2.905,2.361,5.268,5.272,5.268s5.272-2.361,5.272-5.268
		C39.545,39.079,37.184,36.723,34.272,36.723z"/>
	<path d="M42.183,68.36c0-8.739,7.085-15.818,15.819-15.818c8.739,0,15.819,7.079,15.819,15.818c0,2.82-0.799,5.433-2.094,7.727
		L82.5,72.499c-0.557-1.672-1.337-3.223-1.99-4.834c-0.438-6.128,1.545-11.692-9.319-20.396c-3.008-2.411-5.412-4.356-7.422-6.012
		c-2.037-2.197-4.106-4.382-6.357-6.372c-6.195-3.369-11.108-4.205-17.865-8.709c-6.354-4.235-10.851-6.683-12.432-7.519
		L14.005,57.998c0.598-0.073,1.196-0.184,1.818-0.184c8.734,0,15.819,7.079,15.819,15.819c0,8.739-7.085,15.819-15.819,15.819
		c-4.21,0-8.02-1.686-10.851-4.357L0.003,100l51.591-17.199C46.058,80.335,42.183,74.817,42.183,68.36z M34.272,52.542
		c-5.821,0-10.546-4.718-10.546-10.541c0-5.828,4.725-10.546,10.546-10.546c5.829,0,10.546,4.719,10.546,10.546
		C44.818,47.824,40.102,52.542,34.272,52.542z"/>
</g>
</svg>
