<svg xmlns="http://www.w3.org/2000/svg" xmlns:xlink="http://www.w3.org/1999/xlink" version="1.1" id="Layer_1" x="0px" y="0px" width="100px" height="100px" viewBox="0 0 100 100" enable-background="new 0 0 100 100" xml:space="preserve">
<path id="cup" d="M76.574,42.438c-1.34,0-2.597,0.282-3.771,0.773c0.413-3.133,0.692-6.349,0.692-9.684  c0-5.084-13.099-9.209-29.257-9.209s-29.256,4.125-29.256,9.209c0,16.89,5.602,31.646,13.962,39.895  c0.979,2.396,7.416,4.26,15.294,4.26c7.886,0,14.317-1.86,15.295-4.26c2.495-2.464,5.429-6.769,6.641-9.079  c1.207-1.207,4.642-1.017,10.4-1.017s10.444-4.686,10.444-10.443C87.019,47.125,82.333,42.438,76.574,42.438z M44.238,39.489  c-16.799,0-25.531-4.358-26.012-6.017c0.481-1.544,9.212-5.9,26.012-5.9c16.8,0,25.529,4.358,26.012,6.017  C69.768,35.131,61.038,39.489,44.238,39.489z M76.574,58.454c0,0-5.683-0.553-7.581,0c0.203-0.537,1.969-5.959,2.108-6.457  c0.911-2.544,2.711-4.68,5.473-4.68c3.072,0,5.568,2.495,5.568,5.571C82.143,55.955,79.646,58.454,76.574,58.454z"/>
</svg>