<svg xmlns="http://www.w3.org/2000/svg" xmlns:xlink="http://www.w3.org/1999/xlink" version="1.1" id="Your_Icon" x="0px" y="0px" width="100px" height="100px" viewBox="0 0 100 100" enable-background="new 0 0 100 100" xml:space="preserve">
<path d="M84.445,24.057c-0.547,0-1.082,0.018-1.614,0.054c0,0,0.003-7.151,0.003-7.204c0-5.541-6.822-10.032-15.418-10.032  S52,11.366,52,16.907c0,0.002,0,0.004,0,0.006c0,0.003,0,0.005,0,0.008v3.142c-3-1.943-6.918-3.156-11.385-3.156  C32.019,16.907,25,21.399,25,26.94c0,0.004,0,0.008,0,0.012c0,0,0,0.001,0,0.002v4.396c-3-1.232-5.878-1.961-9.34-1.961  c-8.592,0-15.656,4.49-15.66,10.028v22.521c0,5.541,6.878,10.034,15.473,10.034c0.547,0,1.527-0.019,1.527-0.054v7.203  c0,5.541,6.903,10.033,15.501,10.033C41.097,89.155,48,84.663,48,79.122v-4.41c3,1.232,5.878,1.961,9.338,1.961  C65.935,76.673,73,72.18,73,66.639V63.48c3,1.944,6.93,3.159,11.4,3.159c8.596,0,15.594-4.493,15.594-10.032l0.009-22.518  C100.003,28.548,93.04,24.057,84.445,24.057z M67.271,8.067c7.925,0,14.371,3.965,14.371,8.84c0,4.874-6.446,8.84-14.371,8.84  S52.9,21.781,52.9,16.907C52.9,12.032,59.347,8.067,67.271,8.067z M40.371,18.099c7.925,0,14.371,3.966,14.371,8.841  s-6.446,8.84-14.371,8.84S26,31.815,26,26.94S32.446,18.099,40.371,18.099z M15.563,48.264c-7.924,0-14.371-3.966-14.371-8.841  c0-4.875,6.447-8.841,14.371-8.841c7.924,0,14.37,3.966,14.37,8.841C29.934,44.298,23.488,48.264,15.563,48.264z M32.749,65.446  c-7.925,0-14.371-3.966-14.371-8.839c0-4.875,6.446-8.841,14.371-8.841c7.923,0,14.369,3.966,14.369,8.841  C47.118,61.48,40.672,65.446,32.749,65.446z M57.554,52.964c-7.924,0-14.37-3.965-14.37-8.84c0-4.875,6.446-8.84,14.37-8.84  c7.925,0,14.372,3.965,14.372,8.84C71.926,48.999,65.479,52.964,57.554,52.964z M84.454,42.931c-7.923,0-14.369-3.966-14.369-8.841  c0-4.875,6.446-8.841,14.369-8.841c7.925,0,14.371,3.966,14.371,8.841C98.825,38.965,92.379,42.931,84.454,42.931z"/>
<ellipse cx="15.564" cy="39.422" rx="6.559" ry="4.227"/>
<ellipse cx="32.749" cy="56.606" rx="6.559" ry="4.227"/>
<ellipse cx="40.37" cy="26.94" rx="6.558" ry="4.227"/>
<ellipse cx="57.553" cy="44.123" rx="6.554" ry="4.227"/>
<ellipse cx="67.271" cy="16.906" rx="6.558" ry="4.227"/>
<ellipse cx="84.454" cy="34.089" rx="6.557" ry="4.226"/>
</svg>